<?xml version="1.0" encoding="utf-8"?>
<!DOCTYPE svg PUBLIC "-//W3C//DTD SVG 1.0//EN" "http://www.w3.org/TR/2001/REC-SVG-20010904/DTD/svg10.dtd">
<svg version="1.0" xmlns="http://www.w3.org/2000/svg" width="32px" height="32px" viewBox="0 0 288 288" preserveAspectRatio="xMidYMid meet">
 <g fill="#000000">
  <path d="M122.5 270.6 c-45.9 -8.9 -81.5 -37.8 -98.1 -79.8 -7.7 -19.4 -10.5 -46.7 -6.9 -67.9 9 -54 51.4 -96.4 105.4 -105.4 14.8 -2.5 37.7 -1.7 51.6 1.9 47.3 12 82.3 47 94.3 94.6 2.4 9.6 2.7 12.2 2.7 30 0 18.2 -0.2 20.2 -2.8 30.4 -12.5 47.6 -46.4 81.8 -93.8 94.1 -9 2.4 -12.8 2.8 -27.9 3.1 -12 0.2 -19.7 -0.1 -24.5 -1z m36.7 -46.3 c3.7 -1.7 8.7 -5 11.1 -7.2 4.1 -3.8 4.9 -4.1 9.9 -4.1 6.9 0 19 -3.1 25.9 -6.6 6.3 -3.1 15.7 -11.8 19.8 -18.3 4.9 -7.6 8.2 -17.6 8.8 -26.8 l0.6 -8.3 -12.5 0 -12.5 0 -0.6 8.9 c-0.4 6 -1.2 10.2 -2.5 12.7 -3.8 7.4 -11.2 12.4 -18.1 12.4 -3.9 0 -3.9 0 -5 -5.1 -2.8 -13.1 -12.3 -25 -24.6 -30.9 -6.2 -3.1 -7.9 -3.4 -15.5 -3.5 -7.6 0 -9.2 0.3 -15.1 3.2 -10.5 5.2 -19.9 14.9 -22.4 23.1 -0.6 2.1 -0.4 2.2 5.4 2.2 4.7 0 6.5 -0.4 7.9 -1.9 0.9 -1 3 -3.3 4.7 -5.1 4.6 -5.2 9.7 -7 19.5 -7 10.2 0 14.8 1.8 20.2 7.8 4.4 4.8 5.8 9.4 5.8 18.2 -0.1 11.2 -4.4 19.1 -12.5 23 -5.4 2.6 -15.4 3.7 -20.8 2.2 -3.7 -1 -3.8 -0.9 -8.2 3.6 -2.4 2.6 -4 5.1 -3.6 5.5 0.4 0.4 3.5 1.9 6.7 3.3 8.5 3.5 18.3 3.1 27.6 -1.3z m-41 -14.4 l6.7 -1.9 -3.1 -5 c-2.1 -3.5 -3.3 -6.7 -3.6 -10.3 l-0.4 -5.2 -11.2 0 c-8.9 0 -11.8 -0.4 -14.6 -1.9 -4.9 -2.6 -8.8 -6.4 -11.3 -11.1 -2.1 -3.8 -2.2 -5.5 -2.5 -33.3 l-0.3 -29.3 -12.2 0.3 -12.2 0.3 -0.3 24.5 c-0.2 14.7 0.2 27.1 0.8 31 3.7 21.8 23.3 40.9 44.9 43.9 6.8 0.9 10.6 0.5 19.3 -2z m38.8 -86.6 l0 -13.3 -13 0 -13 0 0 13.3 0 13.2 13 0 13 0 0 -13.2z m-34.5 -29.5 c1.1 -5.1 5.1 -10.6 9.5 -12.8 5.7 -2.9 19.1 -2.8 24 0.1 1.9 1.1 4 2.7 4.6 3.4 0.8 1.1 2.2 0.2 6.9 -4.5 l5.9 -6 -2.9 -3.1 c-5 -5.2 -16.7 -10.3 -24.6 -10.7 -18.2 -1.1 -36.4 13 -41.5 32.1 l-1.2 4.7 9.3 0 9.3 0 0.7 -3.2z"/>
 </g>
 <g fill="#ffffff">
  <path d="M136.8 231 c-5.3 -0.9 -16.2 -5.6 -18 -7.7 -0.9 -1.1 0 -2.5 4.6 -7.2 l5.7 -5.8 -7.3 2.5 c-10.3 3.6 -24.3 3.5 -34.4 0 -14 -4.9 -25.6 -15.2 -31.8 -28.1 -5 -10.5 -5.7 -16.5 -5.4 -47.7 l0.3 -27.5 15.2 -0.3 15.2 -0.3 0.3 29.3 c0.3 27.8 0.4 29.5 2.5 33.3 4.1 7.7 11 12.3 19.7 13.2 6.1 0.6 12.6 -1 16.1 -4 l2.6 -2.2 -10.3 0 c-10.2 0 -10.3 0 -10.1 -2.3 1 -9.2 12.3 -22.6 23.8 -28.3 6.7 -3.3 7.4 -3.4 18.5 -3.4 11 0 11.8 0.2 18.5 3.4 12.4 6.1 21.8 17.9 24.6 31 0.6 2.8 1.5 5.1 2 5.1 2 0 8.5 -3.9 11 -6.7 4.5 -4.8 6 -9 6.6 -18.4 l0.6 -8.9 15.5 0 15.5 0 -0.5 11.3 c-0.6 12.3 -3.2 20.9 -8.9 29.8 -4.1 6.5 -13.5 15.2 -19.8 18.3 -6.9 3.5 -19 6.6 -25.9 6.6 -5 0 -5.8 0.3 -9.9 4.1 -5.5 5 -15.1 9.7 -22.9 10.9 -6.6 1.1 -6.9 1.1 -13.6 0z m13.5 -21.4 c2.5 -0.7 5.9 -2.3 7.6 -3.5 6.9 -4.9 10.5 -16.1 8.2 -24.9 -1.5 -5.3 -7.3 -11.9 -12.6 -14.3 -8.2 -3.8 -19.5 -1.7 -25.8 4.7 -4.2 4.2 -5.9 8 -6.4 14.5 -1 10.5 5.7 20.2 15.9 23.4 5.6 1.8 7.5 1.8 13.1 0.1z"/>
  <path d="M136 196.7 c-3.2 -1.6 -3.9 -4.7 -1.1 -4.7 1.1 0 2.3 0.5 2.6 1 0.9 1.4 4.2 1.2 4.8 -0.2 0.7 -2.1 -0.4 -3.8 -2.4 -3.8 -1.2 0 -1.9 -0.7 -1.9 -2 0 -1.3 0.7 -2 2 -2 2.4 0 2.7 -2.8 0.4 -3.7 -1 -0.4 -2.2 0.1 -3 1.2 -0.8 1.1 -1.9 1.5 -3 1.1 -1.5 -0.6 -1.5 -0.9 -0.1 -2.9 1.6 -2.5 8 -3.6 10.3 -1.6 1.6 1.3 1.9 5 0.4 6.5 -0.8 0.8 -0.6 1.5 0.5 2.4 2.3 1.9 1.8 5.6 -1.1 7.9 -3.1 2.4 -4.9 2.6 -8.4 0.8z"/>
  <path d="M151 190 c0 -5.6 -0.3 -7 -1.5 -7 -2.5 0 -1.7 -3 1.1 -4 1.4 -0.6 3 -1 3.5 -1 0.5 0 0.9 4.3 0.9 9.5 0 8.8 -0.1 9.5 -2 9.5 -1.8 0 -2 -0.7 -2 -7z"/>
  <path d="M128 124.1 l0 -17.1 16 0 16 0 0 17.1 0 17.1 -3.7 -0.8 c-4.8 -1.1 -20.8 -1.2 -25 -0.1 l-3.3 0.9 0 -17.1z"/>
  <path d="M100 97.3 c0 -1.6 0.6 -5 1.4 -7.8 5.8 -21.7 27.4 -36 49.1 -32.5 8.1 1.3 19 6.9 24.5 12.5 l4.4 4.5 -8.9 9.1 -9 9 -2.5 -2.9 c-4.2 -4.9 -8.9 -7.2 -14.8 -7.2 -9.3 0 -16.9 5.9 -18.7 14.8 l-0.7 3.2 -12.4 0 -12.4 0 0 -2.7z"/>
 </g>
</svg>